<svg xmlns="http://www.w3.org/2000/svg" xmlns:xlink="http://www.w3.org/1999/xlink" version="1.1" id="Icons" x="0px" y="0px" width="100px" height="100px" viewBox="0 0 100 100" style="enable-background:new 0 0 100 100;" xml:space="preserve">
<path id="Facebook" d="M38.078 22.431c0 2.3 0 12.4 0 12.391H29v15.152h9.078V95h18.649V49.975h12.513 c0 0 1.172-7.265 1.74-15.209c-1.629 0-14.183 0-14.183 0s0-8.815 0-10.36c0-1.548 2.033-3.631 4.043-3.631c2.006 0 6.2 0 10.2 0 c0-2.063 0-9.191 0-15.774c-5.235 0-11.189 0-13.814 0C37.617 5 38.1 20.2 38.1 22.431z"/>
</svg>
